<svg width="50" height="55" viewBox="0 0 50 55" fill="none" xmlns="http://www.w3.org/2000/svg">
<path d="M47.2407 50C48.7645 50 50 48.7643 50 47.2405V2.75951C50 1.23513 48.7643 0 47.2407 0H2.75953C1.23514 0 0 1.23532 0 2.75951V47.2403C0 48.7643 1.23514 49.9998 2.75953 49.9998H47.2407V50Z" fill="#CBAA8A"/>
<path d="M34.6047 55V34.4734H41.2384L42.2315 26.4738H34.6045V21.3663C34.6045 19.0502 35.2237 17.472 38.4216 17.472L42.5 17.47V10.3152C41.7946 10.2179 39.3734 10 36.557 10C30.6765 10 26.6507 13.7279 26.6507 20.5743V26.4738H20V34.4734H26.6507V54.9998H34.6047V55Z" fill="#DD2C2C"/>
</svg>
