<svg width="50" height="52" viewBox="0 0 50 52" fill="none" xmlns="http://www.w3.org/2000/svg">
<path d="M38.5029 1.1428C54.0399 3.14283 49.4798 25.6568 49.0476 36.5695C48.8075 42.57 47.7357 47.2103 41.5432 49.2903C33.3986 52.0266 21.3977 51.1144 13.0931 49.8984C7.54054 49.0983 3.18822 47.4341 1.65215 41.6738C-0.780081 32.5691 -0.0919892 20.248 0.96406 10.9674C0.996178 10.7914 1.04401 10.6633 1.12395 10.5512C1.26778 -3.3373 30.4221 0.102806 38.5029 1.1428Z" fill="#CBAA8A"/>
<path d="M44.9513 9.60776C44.9834 5.78329 40.2149 4.56735 37.6546 6.91963C36.9665 7.55954 36.6463 8.53565 36.5985 9.5917C36.8544 10.9518 37.6706 12.2959 38.7267 13.0639C41.2071 14.8081 44.9191 12.4879 44.9513 9.60776Z" fill="#DD2C2C"/>
<path d="M37.8625 17.0481C32.3903 8.75961 20.0371 7.94339 13.3968 15.2879C8.86849 20.2962 8.54836 28.6329 11.9567 34.5534C12.1487 34.6173 12.3247 34.7293 12.4849 34.9214C18.0214 41.0978 27.5579 43.338 34.4067 37.7376C40.5189 32.7293 42.3109 23.7845 37.8625 17.0481Z" fill="#DD2C2C"/>
<path d="M16.0533 28.4091C17.9894 33.8496 24.87 38.1698 30.3583 34.8096C41.447 28.0251 28.4221 9.59185 19.2853 17.7683C16.0533 19.6723 14.7891 24.8405 16.0533 28.4091Z" fill="#CBAA8A"/>
</svg>
