<svg width="50" height="50" viewBox="0 0 50 50" fill="none" xmlns="http://www.w3.org/2000/svg">
<path fill-rule="evenodd" clip-rule="evenodd" d="M10.2333 0H39.7667C45.395 0 50 4.605 50 10.2333V39.7667C50 45.395 45.395 50 39.7667 50H10.2333C4.605 50.0001 0 45.3951 0 39.7667V10.2333C0 4.605 4.605 0 10.2333 0Z" fill="#CBAA8A"/>
<path fill-rule="evenodd" clip-rule="evenodd" d="M24.9999 8.3335C35.2275 8.3335 43.5185 14.895 43.5185 22.989C43.5185 25.8163 42.5062 28.4559 40.7538 30.6947C40.6671 30.8221 40.5538 30.9629 40.4109 31.1185L40.4001 31.1301C39.8015 31.8379 39.1274 32.5024 38.3862 33.1158C33.2652 37.794 24.836 43.3636 23.7235 42.5043C22.7563 41.7574 25.3163 38.104 22.3628 37.496C22.1568 37.4727 21.9513 37.4476 21.7475 37.419L21.7436 37.4188V37.4185C13.069 36.2006 6.48148 30.2037 6.48148 22.989C6.48121 14.895 14.7724 8.3335 24.9999 8.3335Z" fill="#DD2C2C"/>
<path fill-rule="evenodd" clip-rule="evenodd" d="M13.9273 27.7602H17.6568C18.1873 27.7602 18.6212 27.3185 18.6212 26.7787V26.6968C18.6212 26.1569 18.1873 25.7154 17.6568 25.7154H14.9722V19.4997C14.9722 18.9599 14.5383 18.5183 14.0078 18.5183H13.9273C13.3968 18.5183 12.963 18.9599 12.963 19.4997V26.7785C12.963 27.3185 13.3968 27.7602 13.9273 27.7602ZM37.037 23.1977V23.1158C37.037 22.576 36.603 22.1344 36.0725 22.1344H33.388V20.5805H36.0725C36.603 20.5805 37.037 20.1389 37.037 19.5991V19.5172C37.037 18.9774 36.603 18.5358 36.0725 18.5358H32.343C31.8125 18.5358 31.3786 18.9774 31.3786 19.5172V26.796C31.3786 27.3359 31.8125 27.7776 32.343 27.7776H36.0725C36.603 27.7776 37.037 27.3359 37.037 26.796V26.7142C37.037 26.1743 36.603 25.7328 36.0725 25.7328H33.388V24.1788H36.0725C36.603 24.1791 37.037 23.7374 37.037 23.1977ZM29.8648 27.4676L29.8651 27.4672C30.0435 27.2841 30.1438 27.0367 30.1439 26.7788V19.5C30.1439 18.9601 29.7101 18.5186 29.1794 18.5186H29.099C28.5685 18.5186 28.1346 18.9601 28.1346 19.5V23.7727L24.6487 19.0148C24.4822 18.719 24.1687 18.5186 23.8114 18.5186H23.7309C23.2004 18.5186 22.7664 18.9601 22.7664 19.5V26.7788C22.7664 27.3186 23.2003 27.7603 23.7309 27.7603H23.8114C24.3419 27.7603 24.7758 27.3186 24.7758 26.7788V22.4261L28.2867 27.306C28.3083 27.3402 28.3319 27.3731 28.3574 27.4043L28.3575 27.4046C28.454 27.5385 28.586 27.6303 28.733 27.6863C28.846 27.7339 28.9695 27.7602 29.0988 27.7602H29.1793C29.3365 27.7603 29.4912 27.7209 29.6299 27.6456C29.7263 27.5989 29.8076 27.5386 29.8648 27.4676ZM20.364 27.7602H20.4444C20.9749 27.7602 21.4088 27.3185 21.4088 26.7787V19.4998C21.4088 18.96 20.9749 18.5184 20.4444 18.5184H20.364C19.8335 18.5184 19.3995 18.96 19.3995 19.4998V26.7787C19.3995 27.3185 19.8335 27.7602 20.364 27.7602Z" fill="#CBAA8A"/>
</svg>
