<svg width="45" height="34" viewBox="0 0 45 34" fill="none" xmlns="http://www.w3.org/2000/svg">
<path d="M43.1822 14.28H1.81775C0.813867 14.28 0 15.3264 0 16.6174C0 17.9084 0.813867 18.9549 1.81775 18.9549H43.1822C44.1862 18.9549 45 17.9084 45 16.6174C45 15.3265 44.1862 14.28 43.1822 14.28Z" fill="#DD2C2C"/>
<path d="M43.1822 0H1.81775C0.813867 0 0 1.04655 0 2.33744C0 3.62834 0.813867 4.67489 1.81775 4.67489H43.1822C44.1862 4.67489 45 3.62834 45 2.33744C45 1.04655 44.1862 0 43.1822 0Z" fill="#DD2C2C"/>
<path d="M43.1822 28.5599H1.81775C0.813867 28.5599 0 29.6064 0 30.8974C0 32.1884 0.813867 33.2348 1.81775 33.2348H43.1822C44.1862 33.2348 45 32.1884 45 30.8974C45 29.6064 44.1862 28.5599 43.1822 28.5599Z" fill="#DD2C2C"/>
</svg>
