<svg width="35" height="38" viewBox="0 0 35 38" fill="none" xmlns="http://www.w3.org/2000/svg">
<path d="M17.5002 37.4601C27.1649 37.4601 35 29.1999 35 19.0109C35 8.82224 27.165 0.561306 17.5004 0.561306C7.83578 0.561306 0 8.82224 0 19.0109C0 29.1999 7.83531 37.4601 17.5002 37.4601ZM9.60362 14.1164C10.2418 13.444 11.2764 13.4436 11.9148 14.1164L17.5451 20.0534L23.206 14.0862C23.8438 13.4138 24.8787 13.4134 25.5171 14.0862C25.8357 14.4231 25.9952 14.8636 25.9952 15.3044C25.9952 15.7452 25.8357 16.1858 25.5165 16.5217L18.9492 23.4459C18.8863 23.549 18.8142 23.6473 18.7289 23.7372C18.4027 24.0811 17.9734 24.2466 17.5452 24.2386C17.118 24.2463 16.6879 24.0811 16.3621 23.7368C16.2765 23.6472 16.2047 23.5489 16.1421 23.4459L9.60374 16.553C8.96581 15.8802 8.96534 14.7895 9.60362 14.1164Z" fill="#DD2C2C" fill-opacity="0.65"/>
</svg>
