<svg width="25" height="25" viewBox="0 0 25 25" fill="none" xmlns="http://www.w3.org/2000/svg">
<g clip-path="url(#clip0_126_626)">
<path d="M25 12.5C25 5.59669 19.4035 0.000244141 12.5001 0.000244141C5.59703 0.000244141 0 5.59661 0 12.4999C0 19.4031 5.59703 25.0001 12.5001 25.0001C19.4035 25.0001 25 19.4035 25 12.5ZM9.18399 18.1404C8.72841 17.6846 8.72816 16.9456 9.18399 16.4896L13.2065 12.468L9.16349 8.42449C8.70791 7.96892 8.70766 7.22967 9.16349 6.77368C9.39174 6.5461 9.69024 6.43218 9.9889 6.43218C10.2876 6.43218 10.5861 6.5461 10.8136 6.77409L15.505 11.465C15.5748 11.51 15.6414 11.5615 15.7023 11.6224C15.9353 11.8554 16.0475 12.162 16.0421 12.4679C16.0473 12.773 15.9353 13.0802 15.7021 13.3129C15.6413 13.3741 15.5748 13.4254 15.505 13.4701L10.8348 18.1403C10.379 18.596 9.63999 18.5963 9.18399 18.1404Z" fill="#FFF8EF"/>
</g>
<defs>
<clipPath id="clip0_126_626">
<rect width="25" height="25" fill="white" transform="translate(25) rotate(90)"/>
</clipPath>
</defs>
</svg>
