<svg width="50" height="57" viewBox="0 0 50 57" fill="none" xmlns="http://www.w3.org/2000/svg">
<path fill-rule="evenodd" clip-rule="evenodd" d="M23.7921 0.0535378C23.6026 0.0888392 23.3245 0.13073 23.1739 0.147204C22.6852 0.19945 22.5112 0.238517 22.3235 0.339715C22.1866 0.413142 22.1538 0.414083 22.1969 0.344422C22.2415 0.272407 22.2161 0.270995 22.089 0.339715C21.9976 0.388666 21.923 0.40514 21.923 0.376899C21.923 0.348658 21.8705 0.369368 21.8057 0.423026C21.7415 0.476685 21.688 0.489864 21.6875 0.452209C21.6866 0.414554 21.657 0.429616 21.6219 0.485628C21.5862 0.54211 21.4727 0.593415 21.369 0.600475C21.2654 0.607535 21.1341 0.65884 21.0773 0.714381C21.0205 0.769922 20.9061 0.815108 20.8231 0.815108C20.7401 0.815108 20.6725 0.847114 20.6725 0.886181C20.6725 0.950195 20.317 1.11682 20.0623 1.17283C20.0065 1.1846 19.8658 1.25802 19.7499 1.33522C19.6336 1.41288 19.4887 1.48395 19.4272 1.49384C19.3662 1.50325 19.2846 1.56726 19.2466 1.63551C19.2086 1.70423 19.1444 1.73954 19.104 1.71459C19.0637 1.68917 19.0309 1.70612 19.0309 1.75177C19.0309 1.7979 18.9605 1.83508 18.8742 1.83508C18.7884 1.83508 18.7269 1.87933 18.7377 1.93299C18.7485 1.98712 18.7133 2.02242 18.6594 2.01159C18.6055 2.00077 18.5618 2.02948 18.5618 2.07513C18.5618 2.12079 18.5281 2.13726 18.4873 2.11232C18.4465 2.0869 18.3761 2.13538 18.3311 2.21964C18.286 2.30436 18.1782 2.39614 18.0914 2.42391C18.0037 2.45168 17.9572 2.51193 17.9873 2.55994C18.0224 2.61736 17.991 2.62725 17.893 2.58959C17.8118 2.55853 17.7706 2.55759 17.8006 2.58818C17.8559 2.64372 17.749 2.75292 17.1641 3.23726C16.9887 3.38317 16.8677 3.53897 16.8953 3.58415C16.9263 3.63452 16.8958 3.64676 16.8156 3.61616C16.7335 3.58415 16.6857 3.60533 16.6857 3.67264C16.6857 3.73148 16.6327 3.79973 16.5684 3.82467C16.5037 3.84962 16.4512 3.92164 16.4512 3.98518C16.4512 4.04872 16.4103 4.12591 16.3606 4.15698C16.3011 4.19369 16.2917 4.17816 16.3339 4.10991C16.3761 4.04166 16.3663 4.02613 16.3053 4.06425C16.2551 4.09532 16.2316 4.14945 16.2532 4.18428C16.2748 4.21958 16.211 4.3316 16.1116 4.43421C16.0121 4.53635 15.78 4.823 15.5952 5.07105C15.4108 5.3191 15.2316 5.52197 15.1974 5.52197C15.1632 5.52197 15.075 5.68012 15.0013 5.87357C14.9263 6.07079 14.8325 6.20305 14.7875 6.17528C14.7377 6.14469 14.7312 6.16493 14.7701 6.228C14.81 6.29248 14.78 6.36967 14.689 6.43604C14.6097 6.49441 14.5759 6.54195 14.6139 6.54195C14.6519 6.54195 14.6144 6.59749 14.5314 6.66527C14.4479 6.73351 14.4183 6.76976 14.4662 6.74622C14.5145 6.72222 14.4971 6.81965 14.4272 6.9665C14.3578 7.11101 14.2781 7.21597 14.2499 7.19949C14.2218 7.18302 14.2171 7.23997 14.2396 7.32611C14.2621 7.41271 14.2438 7.48332 14.1998 7.48332C14.1552 7.48332 14.0562 7.65088 13.9793 7.8561C13.9028 8.06085 13.8104 8.24959 13.7739 8.27501C13.7368 8.30043 13.7012 8.39739 13.6946 8.49059C13.6876 8.58378 13.6552 8.66003 13.6224 8.66003C13.59 8.66003 13.5825 8.70945 13.6055 8.7697C13.6285 8.82995 13.6097 8.90291 13.5637 8.93115C13.5178 8.95986 13.4802 9.06624 13.4802 9.1679C13.4802 9.26957 13.4423 9.36559 13.3958 9.38112C13.3489 9.39713 13.2973 9.5148 13.2809 9.64283C13.2246 10.0763 13.1998 10.1921 13.1397 10.2891C13.1069 10.3423 13.1008 10.386 13.1261 10.386C13.151 10.386 13.1153 10.4957 13.0459 10.6299C12.969 10.7795 12.9568 10.8511 13.015 10.8153C13.0848 10.7715 13.0895 10.7922 13.0314 10.8963C12.9872 10.9843 12.9731 11.0846 12.9915 11.1815C13.0126 11.2625 12.9887 11.3274 12.9376 11.3274C12.8874 11.3274 12.8658 11.3599 12.8907 11.4004C12.9155 11.4404 12.8996 11.4959 12.8555 11.5232C12.8048 11.5548 12.8015 11.6206 12.8461 11.7011C12.8888 11.7779 12.8893 11.904 12.8466 12.0156C12.7823 12.1864 12.6927 12.9654 12.6824 13.4455L12.6782 13.6413L6.72793 13.6592C1.20403 13.6761 0.337241 13.6968 0.448872 13.8089C0.472324 13.8319 0.380392 13.9501 0.245778 14.071L0 14.2913L0.0281425 15.653L0.0647277 17.4581C0.0694181 17.7024 0.0999058 17.8855 0.13227 17.8657C0.164633 17.8455 0.1909 17.9217 0.1909 18.0347C0.1909 18.1698 0.159943 18.2206 0.100844 18.1839C0.0389304 18.1458 0.0318948 18.1627 0.0787989 18.238C0.177767 18.3971 0.188086 18.5369 0.104596 18.5887C0.0647277 18.6136 0.0581611 18.6753 0.090525 18.7266C0.153376 18.8264 0.166979 19.0067 0.226078 20.5058C0.247654 21.0452 0.285646 21.7512 0.311443 22.0746C0.337241 22.3984 0.374764 23.1572 0.395402 23.7611C0.501874 26.8935 0.534707 27.6508 0.628984 29.0958C0.656658 29.527 0.693243 30.3215 0.70919 30.8609C0.778608 33.1663 0.84146 34.3473 0.934799 35.1164C0.949339 35.235 0.92448 35.3324 0.878983 35.3324C0.826451 35.3324 0.830203 35.3719 0.888833 35.4435C0.939489 35.5042 0.974199 35.7428 0.966694 35.973C0.95872 36.2032 0.977951 36.9737 1.00985 37.6858C1.04127 38.3975 1.07176 39.233 1.07786 39.5417C1.08349 39.851 1.10928 40.0906 1.13508 40.0746C1.20309 40.0327 1.17448 40.5311 1.10272 40.6469C1.06894 40.701 1.07364 40.7453 1.11303 40.7453C1.15197 40.7453 1.18058 41.0451 1.17636 41.4118C1.17166 41.7789 1.19043 42.0787 1.21763 42.0787C1.24484 42.0787 1.26266 42.5377 1.25656 43.0987C1.25093 43.6593 1.265 44.1182 1.28846 44.1182C1.31144 44.1182 1.32926 44.5739 1.32739 45.1307C1.32598 45.6875 1.34756 46.1285 1.3757 46.1111C1.40384 46.0937 1.42073 46.3799 1.41322 46.7465C1.40572 47.1132 1.42073 47.413 1.44652 47.413C1.47185 47.413 1.49812 47.7576 1.50468 48.1779C1.51078 48.5987 1.53846 49.4549 1.56613 50.0804C1.59333 50.7059 1.62054 51.3856 1.62617 51.5904C1.63226 51.7956 1.66603 51.9632 1.70215 51.9632C1.7378 51.9632 1.75093 52.0851 1.73076 52.2338C1.71059 52.3825 1.71481 52.5247 1.73967 52.5496C1.77192 52.591 1.79408 52.6393 1.8044 52.6908C1.81472 52.7435 1.83958 52.8575 1.85975 52.9436L1.92307 53.2185C1.93761 53.283 1.96763 53.3536 1.98967 53.3752C2.01172 53.3969 2.11678 53.6087 2.22326 53.8459C2.3302 54.0831 2.45262 54.3025 2.49624 54.3335C2.53986 54.3641 2.57504 54.4234 2.57504 54.4649C2.57504 54.5067 2.63601 54.6051 2.71012 54.6837C3.1543 55.1539 3.22513 55.2471 3.17635 55.3013C3.1468 55.3347 3.16415 55.3375 3.21481 55.3083C3.26546 55.2791 3.35646 55.3262 3.41743 55.4128C3.47794 55.4999 3.55064 55.5474 3.57878 55.5187C3.6074 55.4905 3.63038 55.5187 3.63038 55.5818C3.63038 55.6698 4.66321 56.2817 4.88131 56.3231C4.90289 56.3274 4.97324 56.3514 5.0375 56.3772C5.51217 56.5655 7.16836 56.5848 24.9056 56.6069C35.2527 56.6201 43.7024 56.6041 43.6823 56.5721C43.6626 56.5396 43.8155 56.5081 44.0219 56.5015C44.2287 56.4949 44.4506 56.4827 44.5153 56.4737C44.58 56.4653 44.6785 56.4526 44.7348 56.4464C44.792 56.4398 44.8122 56.3942 44.7808 56.3429C44.7442 56.2836 44.7648 56.2666 44.838 56.2949C44.9004 56.3189 45.0172 56.2906 45.0969 56.2323C45.1766 56.1739 45.2719 56.1447 45.3084 56.1673C45.345 56.1899 45.375 56.1711 45.375 56.1254C45.375 56.0798 45.4295 56.0426 45.4961 56.0426C45.5627 56.0426 45.7048 55.9541 45.8122 55.8463C45.9196 55.7385 46.0355 55.65 46.0697 55.65C46.2578 55.65 47.4079 54.3622 47.4079 54.1518C47.4079 54.0987 47.4318 54.0794 47.4613 54.1085C47.5031 54.1509 47.7034 53.8129 47.7559 53.6105C47.7615 53.5889 47.8258 53.459 47.899 53.3216C47.9721 53.1836 48.0087 53.0104 47.9801 52.9361C47.9501 52.8579 47.9599 52.8198 48.0031 52.8466C48.0444 52.872 48.0805 52.8339 48.0838 52.7614C48.087 52.6889 48.118 52.5063 48.1522 52.3552C48.1865 52.2046 48.2207 51.8337 48.2282 51.5315C48.2362 51.2298 48.2512 50.9648 48.2615 50.9432C48.2718 50.9215 48.2868 50.6396 48.2953 50.3158C48.3033 49.9924 48.3413 49.678 48.3793 49.6173C48.4266 49.5415 48.4196 49.5245 48.3577 49.5631C48.3084 49.5937 48.2676 49.5815 48.2676 49.5358C48.2676 49.4902 48.3042 49.453 48.3488 49.453C48.4032 49.453 48.4018 49.4012 48.345 49.2944C48.2986 49.2073 48.2859 49.0938 48.3173 49.043C48.39 48.9253 48.4351 48.1181 48.5308 45.2168C48.5458 44.7635 48.5664 44.3931 48.5767 44.3931C48.602 44.3931 48.6382 43.7944 48.6832 42.628C48.7038 42.0886 48.7259 41.6471 48.732 41.6471C48.7385 41.6471 48.7559 41.2414 48.7709 40.7453C48.7864 40.2487 48.8248 39.5074 48.8567 39.0979C48.892 38.6278 48.9175 38.157 48.9332 37.6858C48.9435 37.3187 48.9585 37.0189 48.967 37.0189C48.9815 37.0189 49.0017 36.4893 49.0744 34.1557C49.0898 33.6591 49.1255 32.9004 49.1541 32.4687C49.2362 31.2172 49.2939 30.1083 49.33 29.0958C49.3581 28.2928 49.405 27.6838 49.4383 27.6838C49.4609 27.6838 49.5322 25.3346 49.5298 24.685C49.5284 24.2868 49.5537 23.9446 49.5856 23.9249C49.618 23.9046 49.6382 23.6213 49.6302 23.2951C49.6203 22.8988 49.6447 22.7015 49.7038 22.7011C49.7521 22.7001 49.7395 22.6648 49.6747 22.6225C49.587 22.565 49.5814 22.5297 49.6513 22.4846C49.7127 22.4441 49.7198 22.3843 49.6719 22.308C49.5838 22.1683 49.5744 22.0515 49.655 22.1014C49.6874 22.1217 49.7123 21.9381 49.7104 21.6943C49.7085 21.4505 49.7202 21.2226 49.7371 21.1878C49.7535 21.1535 49.7686 20.7298 49.7709 20.2464C49.7728 19.7635 49.7925 19.3361 49.815 19.2971C49.8375 19.2575 49.8591 18.8871 49.8628 18.4734C49.8671 18.0592 49.8985 17.6765 49.9337 17.6228C49.9707 17.5649 49.9609 17.5245 49.9093 17.5245C49.8614 17.5245 49.8427 17.4906 49.8685 17.4492C50.012 17.2157 50.0533 14.4434 49.9154 14.2763C49.8699 14.2212 49.8497 14.1591 49.8708 14.1379C49.8919 14.1167 49.8211 14.0522 49.7137 13.9943C49.6063 13.9369 49.5186 13.8465 49.5186 13.7933C49.5186 13.7406 49.4637 13.6766 49.3971 13.6507C49.3145 13.6192 49.2943 13.6352 49.3338 13.7011C49.3797 13.7783 49.3675 13.7783 49.2737 13.702C49.1823 13.6281 47.8164 13.6102 43.2522 13.6239C39.3633 13.6357 37.3455 13.6145 37.338 13.5632C37.3186 13.3149 37.3031 13.0664 37.2916 12.8176C37.2719 12.4509 37.2508 12.1511 37.2442 12.1511C37.2376 12.1511 37.2175 12.0273 37.1992 11.8762C37.1485 11.4521 37.1237 11.3359 37.0702 11.2827C37.0435 11.2554 37.0406 11.1834 37.0636 11.1227C37.074 11.0864 37.0756 11.0483 37.0685 11.0113C37.0613 10.9743 37.0455 10.9396 37.0224 10.9099C36.9764 10.8544 36.9285 10.6637 36.9159 10.4872C36.9037 10.3103 36.8638 10.1841 36.8282 10.2062C36.7921 10.2284 36.771 10.1634 36.7813 10.0613C36.7916 9.9596 36.7592 9.77603 36.709 9.65365C36.6593 9.53127 36.6387 9.39901 36.6631 9.35947C36.6875 9.31993 36.6739 9.28746 36.6331 9.28746C36.5585 9.28746 36.4243 8.91514 36.4534 8.789C36.4619 8.75229 36.4253 8.66898 36.3718 8.60449C36.3183 8.54001 36.2667 8.44681 36.2564 8.39739C36.1823 8.03402 36.1448 7.93706 36.0378 7.82927C35.9243 7.71584 35.8849 7.60475 35.907 7.46355C35.9121 7.43154 35.8788 7.40471 35.8333 7.40471C35.7878 7.40471 35.7724 7.36941 35.7991 7.32658C35.8254 7.28328 35.8043 7.24797 35.7513 7.24797C35.6987 7.24797 35.6781 7.22538 35.7053 7.19808C35.7325 7.17078 35.6861 7.06064 35.6021 6.9538C35.5181 6.84648 35.4684 6.72787 35.4919 6.68974C35.5153 6.65162 35.4975 6.62055 35.452 6.62055C35.406 6.62055 35.377 6.59372 35.3868 6.56171C35.4126 6.47652 35.0393 5.83592 34.9637 5.83592C34.9286 5.83592 34.8999 5.78179 34.8999 5.71589C34.8976 5.68015 34.8854 5.64576 34.8647 5.61658C34.844 5.5874 34.8156 5.56458 34.7827 5.55068C34.718 5.52573 34.6654 5.44007 34.6654 5.36052C34.6654 5.28098 34.6195 5.18778 34.5636 5.15342C34.5078 5.11906 34.3404 4.93361 34.1922 4.74157C34.0472 4.55347 33.8921 4.37355 33.7273 4.20264C33.6199 4.09767 33.5941 4.05672 33.6706 4.11132C33.7888 4.19605 33.8019 4.19181 33.7597 4.08214C33.733 4.01107 33.6875 3.95317 33.6598 3.95317C33.5594 3.95317 32.7893 3.18737 32.7893 3.08758C32.7893 3.03157 32.7682 3.00709 32.7424 3.03298C32.7161 3.05887 32.6077 2.98544 32.5013 2.86965C32.3948 2.75339 32.3338 2.7115 32.3662 2.77646C32.3985 2.84141 32.3047 2.76469 32.1575 2.60607C32.0107 2.44745 31.8549 2.31565 31.8122 2.31283C31.7691 2.31001 31.6457 2.22387 31.5379 2.12173C31.43 2.01959 31.2541 1.90851 31.1471 1.87415C30.8662 1.78519 30.6059 1.57903 30.6017 1.443C30.5988 1.34604 30.5862 1.34416 30.5304 1.43265C30.4741 1.52161 30.4506 1.51925 30.3943 1.41853C30.3573 1.35169 30.3001 1.29521 30.2677 1.29285C30.0557 1.27779 29.8268 1.17942 29.8643 1.1187C29.8887 1.07916 29.8793 1.05516 29.8442 1.06551C29.7217 1.10176 29.2715 0.901714 29.2715 0.810872C29.2715 0.760979 29.2185 0.740269 29.1542 0.765215C29.0895 0.790161 29.0369 0.774158 29.0369 0.729914C29.0369 0.685198 28.998 0.673431 28.9502 0.703085C28.9023 0.732738 28.8409 0.7205 28.8132 0.676255C28.786 0.632011 28.6931 0.58306 28.6068 0.567998C28.521 0.552936 28.4328 0.517634 28.4117 0.489864C28.3901 0.462093 28.2668 0.428204 28.1378 0.414554C28.0088 0.400904 27.8653 0.362308 27.8184 0.328889C27.7715 0.29547 27.6045 0.258757 27.4474 0.24746C27.2898 0.236164 27.1612 0.203687 27.1608 0.174975C27.1608 0.146263 27.0641 0.134025 26.9459 0.147204C26.8277 0.160384 26.6955 0.149558 26.6528 0.122729C26.4614 0.00458645 24.3343 -0.047189 23.7921 0.0535378ZM26.4769 3.386C26.6378 3.42977 26.7701 3.45001 26.7701 3.43024C26.7701 3.41094 26.8137 3.42224 26.8676 3.45613C26.9216 3.49002 27.0271 3.50743 27.1021 3.49519C27.1772 3.48296 27.2391 3.51026 27.2391 3.55591C27.2391 3.60204 27.2654 3.63122 27.2977 3.62181C27.407 3.58886 28.0989 3.8162 28.0989 3.88492C28.0989 3.92258 28.1692 3.95317 28.255 3.95317C28.3413 3.95317 28.4117 3.99036 28.4117 4.03648C28.4117 4.08214 28.4469 4.09767 28.4896 4.07084C28.5327 4.04401 28.5679 4.05955 28.5679 4.1052C28.5679 4.15133 28.6195 4.18852 28.6823 4.18852C28.7457 4.18852 28.9173 4.29442 29.0641 4.42386C29.2109 4.5533 29.3882 4.6592 29.4577 4.6592C29.5271 4.6592 29.5843 4.6945 29.5843 4.73781C29.5843 4.78064 29.6106 4.80794 29.6429 4.79758C29.6983 4.78017 29.9811 4.99904 30.301 5.30639C30.3798 5.3817 30.4441 5.42783 30.4441 5.40806C30.4441 5.38829 30.5322 5.46078 30.6396 5.56857C30.7471 5.67635 30.8348 5.79826 30.8348 5.83968C30.8348 5.88063 30.8896 5.91452 30.9567 5.91452C31.0238 5.91452 31.0594 5.94606 31.0355 5.98465C31.0116 6.02325 31.0468 6.07597 31.1138 6.10185C31.1809 6.12727 31.2161 6.17999 31.1926 6.21858C31.1687 6.25718 31.2227 6.30801 31.3127 6.33155C31.4028 6.35508 31.4567 6.40592 31.4333 6.44404C31.4098 6.48217 31.4591 6.56313 31.5426 6.62337C31.6265 6.68409 31.6959 6.76976 31.6969 6.814C31.6983 6.85872 31.8038 6.99804 31.9314 7.12371C32.0594 7.24939 32.164 7.41742 32.164 7.4965C32.164 7.57557 32.1992 7.64006 32.2419 7.64006C32.285 7.64006 32.3202 7.69324 32.3202 7.75773C32.3202 7.82268 32.3554 7.8754 32.3985 7.8754C32.4412 7.8754 32.4764 7.92576 32.4764 7.98742C32.4764 8.04908 32.5266 8.14981 32.5876 8.211C32.6485 8.27266 32.7381 8.47035 32.7869 8.65062C32.8352 8.83089 32.9051 8.95986 32.9422 8.9368C32.9788 8.91373 32.9895 8.97116 32.9652 9.06435C32.9319 9.19144 32.9469 9.2178 33.0247 9.16932C33.0998 9.12272 33.1148 9.1406 33.0796 9.23333C33.0491 9.31193 33.0819 9.39101 33.164 9.43713C33.2372 9.47808 33.2846 9.52327 33.2686 9.53692C33.2339 9.56752 33.4037 10.2072 33.5046 10.426C33.5449 10.5127 33.5876 10.6717 33.5998 10.7791C33.612 10.8864 33.6617 11.0699 33.7105 11.1867C33.7592 11.3029 33.7855 11.5063 33.7686 11.6376C33.7522 11.7689 33.7752 11.8762 33.8193 11.8762C33.8666 11.8762 33.8878 12.0076 33.8704 12.1902C33.854 12.3629 33.8657 12.5041 33.8967 12.5041C33.9281 12.5041 33.9454 12.6425 33.9361 12.8115C33.9267 12.9805 33.9464 13.1019 33.9797 13.0812C34.0787 13.02 34.0482 13.2483 33.9422 13.3612C33.8643 13.4441 33.8643 13.4723 33.9422 13.501C33.9961 13.5208 34.0402 13.5603 34.0402 13.5891C34.0402 13.6178 29.9947 13.6239 25.0501 13.6022C19.0928 13.5763 16.0497 13.5895 16.0295 13.6413C16.0037 13.7081 16.0239 13.26 16.0773 12.602C16.0848 12.5051 16.1134 12.4255 16.1402 12.4255C16.1669 12.4255 16.1936 12.3107 16.1993 12.1704C16.2223 11.5901 16.2645 11.2813 16.3348 11.1702C16.3761 11.1057 16.4132 10.9998 16.4174 10.9349C16.4258 10.854 16.4457 10.7747 16.4765 10.6995C16.5046 10.635 16.5426 10.4938 16.5614 10.386C16.5801 10.2783 16.6008 10.1898 16.6073 10.1898C16.6139 10.1898 16.6345 10.1041 16.6538 9.99961C16.673 9.89511 16.726 9.76426 16.772 9.70919C16.8179 9.65365 16.8344 9.57363 16.8081 9.53174C16.7823 9.48985 16.8025 9.4296 16.8527 9.39854C16.9136 9.36088 16.923 9.37595 16.8808 9.44467C16.8409 9.50915 16.8484 9.52798 16.9005 9.49597C16.946 9.46726 16.9652 9.37359 16.9427 9.28746C16.9202 9.20132 16.9399 9.13072 16.9868 9.13072C17.0337 9.13072 17.0492 9.07235 17.0215 9.00034C16.9882 8.91279 17.0018 8.88832 17.0623 8.92597C17.1214 8.96268 17.1364 8.93962 17.1064 8.86007C17.0806 8.79324 17.0928 8.73864 17.1336 8.73864C17.203 8.73864 17.4202 8.34467 17.3892 8.27501C17.3813 8.25712 17.4296 8.21194 17.4962 8.17476C17.5628 8.1371 17.5994 8.06038 17.5778 8.0039C17.5562 7.94694 17.5928 7.85563 17.6589 7.80009C17.7255 7.74455 17.7799 7.65088 17.7799 7.59158C17.7799 7.5318 17.8592 7.40377 17.9558 7.30681C18.0525 7.20985 18.1331 7.095 18.1355 7.0517C18.1374 7.00887 18.1838 6.98298 18.2387 6.99475C18.294 7.00698 18.3198 6.9858 18.2964 6.94768C18.2462 6.86672 18.5107 6.49299 18.8822 6.11974C19.0285 5.97241 19.1852 5.80438 19.2307 5.74602C19.2762 5.68765 19.4661 5.51632 19.6528 5.36523C19.8395 5.21414 20.0614 5.0141 20.1458 4.91996C20.2377 4.81829 20.3508 4.76793 20.4272 4.79523C20.4976 4.82065 20.5295 4.81264 20.4985 4.77829C20.3841 4.65167 21.9333 3.77243 22.2569 3.78043C22.3958 3.78373 22.4539 3.75501 22.4197 3.69947C22.3864 3.64487 22.4113 3.62981 22.4872 3.65899C22.5233 3.67087 22.5618 3.67294 22.5989 3.665C22.6359 3.65706 22.6703 3.6394 22.6983 3.61381C22.9769 3.33187 25.6819 3.16901 26.4769 3.386ZM26.256 20.7317C26.2752 20.7628 26.4342 20.7849 26.6087 20.7802C26.7832 20.776 26.9262 20.7929 26.9262 20.8183C26.9262 20.8433 26.9877 20.8682 27.0632 20.8729C27.2569 20.8852 27.5365 20.9576 27.642 21.0231C27.7002 21.0593 27.711 21.0443 27.6716 20.9807C27.6242 20.9035 27.6467 20.9012 27.7766 20.9713C27.8681 21.0202 27.9427 21.0391 27.9427 21.0137C27.9427 20.9882 27.9863 20.9948 28.0402 21.0283C28.1373 21.089 28.264 21.1266 28.4896 21.1624C28.5543 21.1723 28.6734 21.2184 28.755 21.2645C28.8362 21.3102 28.9694 21.3304 29.0505 21.3092C29.1317 21.2881 29.2588 21.3248 29.3324 21.3907C29.4065 21.4566 29.5548 21.5229 29.6622 21.538C29.77 21.5526 29.9042 21.6086 29.9609 21.6627C30.0557 21.7526 30.2316 21.7959 30.3906 21.7682C30.4966 21.7498 31.3821 22.2478 31.3821 22.3255C31.3821 22.365 31.4173 22.3758 31.4605 22.349C31.5031 22.3226 31.5383 22.3382 31.5383 22.3838C31.5383 22.4295 31.5651 22.461 31.597 22.454C31.7039 22.4309 32.0871 22.6187 32.256 22.7768C32.3474 22.862 32.4483 22.9157 32.4802 22.8959C32.5121 22.8762 32.5594 22.9148 32.5852 22.9821C32.6106 23.0494 32.6631 23.0847 32.7015 23.0611C32.9042 22.9355 33.1054 23.6288 32.9201 23.8147C32.8472 23.8968 32.7912 23.9926 32.7555 24.0967C32.7259 24.1908 32.6598 24.26 32.6087 24.2501C32.5576 24.2402 32.5257 24.2802 32.5383 24.3386C32.5505 24.3974 32.4975 24.4972 32.4211 24.5603C32.3441 24.6234 32.3338 24.6478 32.3985 24.6149C32.4989 24.5631 32.5008 24.5735 32.4089 24.6869C32.3502 24.7594 32.2653 24.7956 32.2198 24.7674C32.1683 24.7354 32.1561 24.7655 32.187 24.8465C32.2147 24.9185 32.2011 24.9773 32.157 24.9773C32.1124 24.9773 32.096 25.0084 32.1195 25.047C32.1804 25.1458 31.824 25.3633 31.6256 25.3487C31.5346 25.3416 31.4605 25.3082 31.4605 25.2743C31.4605 25.2404 31.4337 25.2169 31.4018 25.2216C31.2386 25.2475 31.1476 25.2004 31.1476 25.0903C31.1476 25.023 31.1138 24.9891 31.0721 25.0145C31.0308 25.0404 30.9253 24.9895 30.8376 24.9015C30.7503 24.8135 30.6786 24.7636 30.6786 24.7904C30.6786 24.8173 30.6256 24.7956 30.5613 24.742C30.4966 24.6883 30.4441 24.6714 30.4441 24.7052C30.4441 24.7387 30.3779 24.7062 30.2972 24.6328C30.1087 24.4614 29.5843 24.1927 29.4394 24.1927C29.3779 24.1927 29.2808 24.131 29.2241 24.0552C29.1467 23.9536 29.1195 23.9465 29.1176 24.0284C29.1157 24.1127 29.0787 24.1056 28.9586 23.9964C28.8728 23.9183 28.8024 23.8773 28.8024 23.9051C28.8024 23.9333 28.6706 23.9065 28.5093 23.8458C28.1626 23.7154 27.771 23.6128 27.6884 23.6307C27.6561 23.6377 27.6298 23.6024 27.6298 23.5521C27.6298 23.5017 27.6068 23.4838 27.5782 23.5121C27.5501 23.5403 27.4835 23.5276 27.4305 23.4833C27.377 23.4391 27.3034 23.4104 27.2668 23.4203C27.2297 23.4297 27.0065 23.4071 26.7701 23.3704C26.5337 23.3332 26.2255 23.3017 26.0857 23.3007C25.946 23.2993 25.832 23.2725 25.832 23.2409C25.832 23.2099 25.7175 23.1831 25.5778 23.1816C25.438 23.1802 25.1655 23.175 24.9718 23.1694C24.6411 23.1605 23.7602 23.2202 23.7602 23.2522C23.7602 23.2602 23.6725 23.2772 23.5646 23.2894C23.4572 23.3017 23.2462 23.3374 23.0956 23.3685C22.945 23.3996 22.7691 23.4297 22.7049 23.4363C22.6697 23.4412 22.6359 23.4531 22.6054 23.4713C22.5748 23.4894 22.5482 23.5136 22.5271 23.5422C22.4933 23.5944 22.4145 23.617 22.3512 23.5925C22.2879 23.5681 22.2358 23.5864 22.2358 23.6326C22.2358 23.6792 22.1833 23.697 22.119 23.6721C22.1034 23.6662 22.0867 23.6635 22.07 23.6641C22.0533 23.6648 22.0369 23.6688 22.0217 23.6759C22.0065 23.683 21.9929 23.6931 21.9817 23.7055C21.9705 23.7179 21.9618 23.7325 21.9563 23.7483C21.9291 23.8199 21.8597 23.8495 21.7865 23.8213C21.6974 23.7869 21.681 23.8029 21.7279 23.8787C21.7743 23.9545 21.7579 23.9705 21.6688 23.9366C21.5965 23.9088 21.5266 23.9371 21.5008 24.0053C21.476 24.0694 21.4108 24.1112 21.3554 24.0985C21.2551 24.075 21.1922 24.1192 20.7513 24.5259C20.6228 24.6445 20.4901 24.742 20.4563 24.742C20.4225 24.742 20.3301 24.8634 20.2504 25.0117C20.1706 25.1604 20.0571 25.3002 19.998 25.3233C19.967 25.3375 19.9404 25.3601 19.9215 25.3887C19.9025 25.4172 19.8918 25.4504 19.8906 25.4847C19.8906 25.5506 19.8555 25.6047 19.8123 25.6047C19.7696 25.6047 19.7344 25.6509 19.7344 25.7078C19.7344 25.7643 19.6702 25.8796 19.5914 25.9643C19.5131 26.0491 19.4647 26.1663 19.4844 26.2251C19.507 26.2929 19.4854 26.3112 19.4263 26.2745C19.3695 26.2392 19.3404 26.258 19.3517 26.3225C19.3625 26.3809 19.3254 26.5871 19.2696 26.7814C19.1608 27.1608 19.1111 28.3502 19.204 28.3502C19.2349 28.3502 19.2377 28.4091 19.2105 28.4811C19.1739 28.5757 19.1889 28.5941 19.2645 28.547C19.3423 28.499 19.3569 28.5249 19.324 28.652C19.2996 28.7451 19.3156 28.8209 19.3592 28.8209C19.4028 28.8209 19.4178 28.8741 19.3934 28.9386C19.3686 29.0036 19.3845 29.0563 19.4286 29.0563C19.4727 29.0563 19.4896 29.0878 19.4661 29.1255C19.4427 29.1636 19.4938 29.2841 19.5792 29.3928C19.6646 29.502 19.7344 29.6296 19.7344 29.6766C19.7344 29.7237 19.7696 29.7623 19.8123 29.7623C19.8555 29.7623 19.8864 29.7891 19.8812 29.8211C19.8578 29.9708 19.8972 30.0814 19.96 30.0424C19.998 30.0188 20.0773 30.0588 20.1359 30.1313C20.2274 30.2448 20.226 30.2546 20.1252 30.2033C20.0604 30.1699 20.0764 30.1986 20.1599 30.2664C20.2429 30.3347 20.339 30.3902 20.3728 30.3902C20.4061 30.3902 20.4891 30.497 20.5562 30.6279C20.6237 30.7587 20.7129 30.8449 20.7537 30.8195C20.7949 30.794 20.8287 30.827 20.8287 30.8929C20.8287 30.9724 20.8723 30.996 20.9586 30.9626C21.0351 30.9334 21.0693 30.9447 21.0412 30.9899C21.0149 31.0327 21.097 31.1287 21.2236 31.204C21.3503 31.2789 21.4539 31.3127 21.4539 31.2793C21.4539 31.2454 21.5088 31.2967 21.5759 31.3923C21.6425 31.4883 21.7659 31.5669 21.8493 31.5669C21.9328 31.5669 22.0013 31.6022 22.0013 31.645C22.0013 31.6883 22.0384 31.7236 22.0839 31.7236C22.2447 31.7236 22.8611 32.0428 22.8611 32.1261C22.8611 32.1732 22.9141 32.1906 22.9783 32.1661C23.0431 32.1411 23.0956 32.1572 23.0956 32.2014C23.0956 32.2456 23.1308 32.2602 23.1739 32.2334C23.2171 32.207 23.2522 32.2136 23.2522 32.2485C23.2522 32.2833 23.3479 32.3177 23.4647 32.3242C23.5815 32.3313 23.6903 32.3755 23.7058 32.4231C23.7218 32.4702 23.7668 32.489 23.8062 32.465C23.8451 32.4405 23.8775 32.4518 23.8775 32.4904C23.8775 32.529 23.9216 32.5643 23.975 32.569C24.1688 32.5855 24.3432 32.6354 24.3962 32.689C24.4263 32.7187 24.5154 32.7436 24.5942 32.7436C24.673 32.7436 24.7372 32.7808 24.7372 32.8265C24.7372 32.8721 24.7701 32.8895 24.8099 32.8646C24.8297 32.8528 24.8533 32.8493 24.8756 32.8548C24.8979 32.8604 24.9171 32.8746 24.9291 32.8942C24.9544 32.9357 25.0459 32.9554 25.1322 32.939C25.218 32.922 25.2682 32.9423 25.2429 32.9827C25.218 33.0237 25.2344 33.0618 25.2799 33.067C25.3254 33.0726 25.3981 33.0858 25.4408 33.0966C25.4839 33.1075 25.6265 33.1206 25.7583 33.1258C25.8958 33.1315 25.9769 33.1691 25.9492 33.2143C25.9225 33.2571 25.9469 33.2953 26.0032 33.2986C26.2616 33.3132 26.4938 33.3823 26.5407 33.4581C26.5688 33.5038 26.6148 33.5358 26.6429 33.5287C26.7658 33.4986 27.1608 33.6257 27.1608 33.6958C27.1608 33.7382 27.1964 33.7504 27.2396 33.7236C27.2827 33.6968 27.3737 33.7302 27.4413 33.7984C27.5088 33.8662 27.5942 33.9029 27.6307 33.8803C27.6673 33.8577 27.7194 33.8756 27.7471 33.9203C27.7747 33.9646 27.8259 33.9834 27.861 33.9618C27.8962 33.9396 27.9685 33.9745 28.0215 34.039C28.0745 34.103 28.1683 34.1557 28.2302 34.1557C28.4079 34.1557 29.0646 34.4776 29.1701 34.617C29.2231 34.6866 29.2682 34.7087 29.27 34.6654C29.2724 34.6221 29.301 34.6301 29.3348 34.6829C29.3681 34.736 29.4802 34.7921 29.5834 34.8081C29.6866 34.8236 29.7851 34.8777 29.8015 34.9276C29.8179 34.9775 29.899 35.0185 29.9816 35.0185C30.0641 35.0185 30.1312 35.0538 30.1312 35.0971C30.1312 35.1399 30.1842 35.1752 30.2485 35.1752C30.3132 35.1752 30.3657 35.2105 30.3657 35.2538C30.3657 35.2971 30.4098 35.3235 30.4638 35.3126C30.5172 35.3018 30.5524 35.3371 30.5416 35.3912C30.5308 35.4449 30.5801 35.4891 30.6504 35.4891C30.7208 35.4891 30.8291 35.5508 30.8906 35.6266C30.9642 35.7165 30.9853 35.7231 30.9525 35.6459C30.9244 35.5814 30.9849 35.6256 31.0862 35.7443C31.188 35.8629 31.3132 35.9598 31.3657 35.9598C31.4178 35.9598 31.4605 35.9951 31.4605 36.0384C31.4605 36.0813 31.5041 36.1081 31.558 36.0973C31.612 36.0864 31.6462 36.1241 31.6345 36.1815C31.6223 36.2385 31.6406 36.2681 31.6744 36.2474C31.7428 36.2046 32.0102 36.3797 32.0322 36.4823C32.0402 36.5185 32.073 36.5392 32.1054 36.5284C32.1373 36.5176 32.1556 36.5355 32.1457 36.568C32.1157 36.6659 32.4253 36.9892 32.6242 37.0673C32.7269 37.1078 32.7888 37.1634 32.7616 37.1907C32.7344 37.218 32.7822 37.2895 32.8681 37.3498C32.9534 37.41 33.0238 37.5121 33.0238 37.5771C33.0238 37.6421 33.0529 37.6769 33.089 37.6548C33.1246 37.6326 33.2015 37.7362 33.2597 37.8854C33.3179 38.0346 33.3901 38.1565 33.4201 38.1565C33.4501 38.1565 33.497 38.2182 33.5247 38.2935C33.5524 38.3693 33.6406 38.5538 33.7203 38.7035C33.8 38.8536 33.8479 39.0212 33.8268 39.0762C33.8061 39.1313 33.8277 39.176 33.8756 39.176C33.9229 39.176 33.9619 39.241 33.9619 39.3201C33.9619 39.3991 33.9877 39.49 34.0191 39.5215C34.2081 39.7112 34.3193 41.8316 34.1589 42.1898C34.1077 42.3042 34.1162 42.3249 34.1945 42.276C34.2738 42.2265 34.286 42.2637 34.247 42.4398C34.2198 42.565 34.1584 42.861 34.1115 43.0987C34.0641 43.3359 33.9895 43.5741 33.945 43.6282C33.9009 43.6819 33.8906 43.7261 33.922 43.7261C33.9539 43.7261 33.9281 43.8057 33.8652 43.9026C33.8024 43.9996 33.7597 44.1408 33.771 44.2166C33.7827 44.2919 33.7424 44.3536 33.6814 44.3536C33.6209 44.3536 33.5712 44.3912 33.5712 44.4369C33.5712 44.4825 33.6063 44.4981 33.649 44.4712C33.6922 44.4449 33.7273 44.4604 33.7273 44.5061C33.7273 44.5517 33.6959 44.5889 33.6575 44.5889C33.6195 44.5889 33.5674 44.6708 33.5425 44.7706C33.5177 44.8709 33.4267 45.0342 33.3404 45.134C33.2541 45.2337 33.2058 45.3514 33.233 45.3957C33.2616 45.4418 33.2442 45.4526 33.1922 45.4201C33.1424 45.3895 33.0974 45.4018 33.0923 45.4474C33.0735 45.6061 33.0599 45.6489 32.9975 45.7473C32.9633 45.8019 32.9051 45.8282 32.8685 45.8056C32.8319 45.783 32.7789 45.8697 32.7508 45.9986C32.7227 46.1271 32.6753 46.2245 32.6453 46.2151C32.6152 46.2052 32.5036 46.282 32.3967 46.3855C32.2902 46.4886 32.2522 46.5451 32.3127 46.5103C32.3864 46.4684 32.4042 46.4773 32.3667 46.538C32.3362 46.5879 32.2592 46.6289 32.1959 46.6289C32.1326 46.6289 32.0576 46.6905 32.0294 46.7658C31.9708 46.923 31.5552 47.3349 31.4558 47.3349C31.4192 47.3349 31.3076 47.4168 31.2077 47.517C31.1077 47.6173 30.983 47.6851 30.9305 47.6672C30.8779 47.6498 30.8348 47.6879 30.8348 47.7519C30.8348 47.8569 30.4136 48.08 30.2682 48.0522C30.2358 48.0456 30.2095 48.08 30.2095 48.1275C30.2095 48.1755 30.1551 48.1934 30.0881 48.1675C30.0214 48.1421 29.9867 48.1529 30.0107 48.192C30.0351 48.2316 29.9492 48.2866 29.8202 48.3149C29.6912 48.3436 29.566 48.3991 29.5412 48.4391C29.5168 48.4787 29.4286 48.5116 29.3451 48.5116C29.2616 48.5116 29.1931 48.5469 29.1931 48.5897C29.1931 48.633 29.1561 48.6683 29.1106 48.6683C29.0651 48.6683 29.0491 48.6335 29.0754 48.5907C29.1031 48.5464 29.0716 48.5333 29.0018 48.5601C28.9352 48.5855 28.8807 48.642 28.8807 48.6853C28.8807 48.7281 28.8352 48.746 28.7794 48.7248C28.7241 48.7032 28.6134 48.7338 28.5337 48.7921C28.4539 48.851 28.3592 48.8806 28.3235 48.8585C28.2879 48.8364 28.1087 48.8618 27.9248 48.9155C27.741 48.9691 27.5027 49.0171 27.3953 49.0228C27.2879 49.0284 27.1378 49.0609 27.0618 49.0948C26.9858 49.1287 26.854 49.1386 26.7687 49.116C26.6833 49.0934 26.6331 49.107 26.657 49.1466C26.6814 49.1856 26.6636 49.2176 26.6181 49.2176C26.5726 49.2176 26.5351 49.1734 26.5341 49.1193C26.5332 49.0515 26.5154 49.0477 26.4755 49.108C26.4145 49.2002 23.9056 49.2407 23.7602 49.1522C23.6645 49.0938 23.5796 49.0797 22.9591 49.0232C22.6903 48.9983 22.3737 48.9413 22.2555 48.8962C22.1373 48.851 22.0318 48.8166 22.021 48.8199C21.9019 48.8533 21.6101 48.8105 21.6387 48.7639C21.6594 48.7305 21.5825 48.7088 21.4675 48.7159C21.3526 48.7229 21.1786 48.6782 21.0806 48.6166C20.9826 48.5554 20.8709 48.5248 20.832 48.5488C20.7931 48.5728 20.7391 48.5568 20.7124 48.5126C20.6852 48.4688 20.5768 48.433 20.4713 48.433C20.3658 48.433 20.2185 48.4001 20.1434 48.3601C19.9858 48.2758 19.7222 48.1751 19.6336 48.1652C19.5998 48.1614 19.5388 48.1054 19.498 48.0409C19.4572 47.976 19.4235 47.9628 19.423 48.0113C19.4216 48.1143 17.9413 47.3904 17.8465 47.2398C17.8114 47.1843 17.7818 47.1664 17.7814 47.2003C17.7795 47.2864 17.4418 47.0995 17.3658 46.9701C17.3311 46.9117 17.2335 46.8642 17.1481 46.8642C17.0628 46.8642 16.9741 46.8143 16.9511 46.7536C16.9277 46.6924 16.8217 46.6209 16.7157 46.594C16.6097 46.5677 16.5421 46.514 16.5661 46.4759C16.5895 46.4373 16.4188 46.2966 16.1861 46.1629C15.9535 46.0297 15.7434 45.8678 15.7185 45.8038C15.7046 45.771 15.6819 45.7427 15.6529 45.7222C15.6239 45.7017 15.5898 45.6896 15.5543 45.6875C15.438 45.6875 15.4014 45.5623 15.4315 45.2705C15.4465 45.1255 15.7804 44.587 15.9024 44.5117C15.939 44.4887 15.9812 44.4199 15.9952 44.3583C16.0093 44.2971 16.1177 44.1422 16.2359 44.0142C16.3541 43.8862 16.4512 43.7337 16.4512 43.6753C16.4512 43.6169 16.4882 43.5694 16.5337 43.5694C16.5792 43.5694 16.5975 43.5379 16.5736 43.4997C16.5501 43.4616 16.627 43.4117 16.7448 43.3891C16.8625 43.3665 16.9812 43.3849 17.0088 43.4296C17.0365 43.4743 17.098 43.4866 17.1458 43.4569C17.1955 43.4263 17.2326 43.4555 17.2326 43.5252C17.2326 43.5925 17.2856 43.6475 17.3498 43.6475C17.3809 43.6475 17.4108 43.6599 17.4327 43.682C17.4547 43.7041 17.4671 43.734 17.4671 43.7652C17.4671 43.8302 17.5332 43.8829 17.6139 43.8829C17.6946 43.8829 17.8076 43.9398 17.8648 44.009C17.9221 44.0782 18.0496 44.1658 18.1486 44.2034C18.2476 44.2411 18.3193 44.3169 18.3081 44.3715C18.2973 44.4265 18.3372 44.4609 18.3972 44.4482C18.4572 44.435 18.612 44.5235 18.7415 44.644C18.8709 44.7649 18.9516 44.8195 18.9211 44.7654C18.8409 44.6252 18.9019 44.6445 19.1087 44.8243C19.2082 44.9109 19.3343 44.9815 19.3902 44.9815C19.4455 44.9815 19.5435 45.0568 19.6078 45.1486C19.6786 45.2507 19.772 45.2973 19.8465 45.2686C19.9136 45.2427 19.969 45.2578 19.969 45.3015C19.969 45.3872 20.4286 45.5788 20.5478 45.5435C20.5872 45.5317 20.6434 45.5618 20.673 45.6098C20.7025 45.6583 20.794 45.7106 20.8756 45.7256C20.9572 45.7411 21.0327 45.7609 21.0435 45.7694C21.0722 45.7835 21.1032 45.7922 21.135 45.7953C21.184 45.8056 21.2291 45.8294 21.2654 45.864C21.2973 45.896 21.3686 45.9228 21.423 45.9228C21.4774 45.9228 21.6209 45.9628 21.7419 46.0123C21.8634 46.0617 22.0149 46.1102 22.0796 46.1201C22.1439 46.1304 22.355 46.1803 22.5487 46.2311C22.7419 46.2824 22.9774 46.3366 23.0717 46.3516C23.1659 46.3662 23.2827 46.4029 23.331 46.4331C23.5735 46.5837 26.4572 46.5936 26.4572 46.4439C26.4572 46.4067 26.513 46.3982 26.5815 46.4246C26.65 46.4509 26.7466 46.4467 26.7963 46.4156C26.8465 46.3841 26.9225 46.3507 26.9652 46.3413L27.2142 46.2857C27.308 46.2646 27.4577 46.2085 27.5468 46.1605C27.6519 46.1045 27.7081 46.1022 27.7081 46.1539C27.7081 46.1977 27.832 46.1638 27.9839 46.0782C28.1359 45.9925 28.3118 45.9228 28.3746 45.9228C28.438 45.9228 28.4896 45.8875 28.4896 45.8442C28.4896 45.8009 28.5576 45.7656 28.6406 45.7656C28.7236 45.7656 28.8442 45.7129 28.9084 45.648C28.9731 45.5835 29.0773 45.5303 29.1401 45.5303C29.2034 45.5303 29.2752 45.4776 29.2996 45.4126C29.3135 45.3797 29.3363 45.3512 29.3654 45.3305C29.3944 45.3097 29.4286 45.2974 29.4642 45.2949C29.5304 45.2949 29.5843 45.2578 29.5843 45.2121C29.5843 45.1664 29.611 45.1457 29.6439 45.166C29.7283 45.2182 29.9328 45.0521 30.0468 44.8374C30.1002 44.7367 30.1598 44.6703 30.1795 44.6896C30.2424 44.7532 30.6786 44.2947 30.6786 44.1653C30.6786 44.0966 30.7217 44.0486 30.7743 44.0594C30.8273 44.0702 30.8835 43.9911 30.8995 43.8829C30.9159 43.7751 30.9548 43.6692 30.9863 43.6475C31.0927 43.5751 31.4356 42.7429 31.4159 42.6064C31.4047 42.532 31.4229 42.4708 31.4553 42.4708C31.4881 42.4708 31.5008 42.3268 31.483 42.1512C31.4656 41.9752 31.4881 41.7864 31.5332 41.7318C31.5782 41.6772 31.5895 41.6066 31.5576 41.5746C31.5257 41.5426 31.491 41.4047 31.4811 41.2682C31.4708 41.1317 31.4412 40.9138 31.415 40.7844C31.3887 40.6549 31.362 40.4695 31.3549 40.3725C31.3484 40.2755 31.3202 40.196 31.2925 40.196C31.2649 40.196 31.1462 40.0105 31.0285 39.7841C30.9108 39.5577 30.7752 39.3464 30.7274 39.3149C30.665 39.2739 30.6683 39.2565 30.7372 39.256C30.7963 39.2551 30.7733 39.1925 30.6786 39.0979C30.5927 39.0113 30.4881 38.9407 30.4464 38.9407C30.4047 38.9407 30.3911 38.888 30.4159 38.823C30.4403 38.7585 30.422 38.7053 30.3742 38.7053C30.2682 38.7053 29.9375 38.3824 29.9323 38.2742C29.9305 38.2309 29.8864 38.2045 29.8348 38.2154C29.7827 38.2262 29.7405 38.1937 29.7405 38.1433C29.7405 38.093 29.7175 38.0746 29.6894 38.1029C29.6612 38.1311 29.5379 38.0487 29.415 37.9202C29.2926 37.7913 29.1636 37.6858 29.1293 37.6858C29.0946 37.6858 28.99 37.6143 28.8967 37.5272C28.8034 37.4401 28.718 37.3728 28.7063 37.3775C28.6411 37.4053 28.255 37.177 28.255 37.1107C28.255 37.0673 28.233 37.0546 28.2053 37.0819C28.1781 37.1092 28.0538 37.0589 27.9291 36.9699C27.8043 36.881 27.6598 36.8009 27.6073 36.792C27.5552 36.7831 27.4248 36.7266 27.317 36.6659C27.2095 36.6051 27.0867 36.5505 27.0435 36.5439C26.997 36.5371 26.9511 36.5261 26.9065 36.511C26.8679 36.4969 26.8288 36.4842 26.7893 36.4729C26.585 36.4099 26.3868 36.3288 26.1969 36.2305C26.0749 36.1679 25.908 36.1166 25.8254 36.1166C25.7429 36.1166 25.6753 36.0775 25.6753 36.03C25.6753 35.9819 25.6251 35.9626 25.5632 35.9862C25.5018 36.0102 25.4399 35.9956 25.4263 35.9546C25.4009 35.8793 25.2039 35.8191 24.7799 35.7574C24.6528 35.7391 24.514 35.6887 24.4713 35.6459C24.4286 35.6026 24.3301 35.5677 24.2527 35.5677C24.1753 35.5677 24.112 35.5334 24.112 35.4915C24.112 35.4496 24.066 35.4331 24.0098 35.4548C23.9535 35.4764 23.8292 35.4261 23.7335 35.3428C23.6261 35.2496 23.4961 35.2081 23.3934 35.235C23.2809 35.2646 23.2457 35.2496 23.2832 35.1884C23.3174 35.1324 23.2973 35.1145 23.2288 35.1408C23.1683 35.1644 22.9502 35.0933 22.7438 34.9832C22.5374 34.873 22.3226 34.7831 22.2654 34.7831C22.2086 34.7831 21.9591 34.6876 21.7105 34.5713C21.4619 34.4546 21.234 34.3576 21.2039 34.3553C21.1739 34.3534 21.1054 34.3077 21.0515 34.2536C20.9976 34.1995 20.9075 34.1557 20.8512 34.1557C20.7279 34.1557 20.4216 33.9905 20.3414 33.8808C20.31 33.838 20.2832 33.8319 20.2827 33.8681C20.2813 33.9378 19.4788 33.3758 19.4347 33.2746C19.4202 33.2411 19.3587 33.2143 19.2978 33.2143C19.2368 33.2143 19.1871 33.1625 19.1871 33.099C19.1871 33.0274 19.1416 33.0011 19.0665 33.0303C18.9901 33.0595 18.9544 33.0373 18.969 32.9686C18.9816 32.9098 18.9464 32.8702 18.8916 32.8815C18.8367 32.8928 18.7715 32.8486 18.7466 32.7841C18.7218 32.7192 18.6702 32.6853 18.6317 32.7093C18.5933 32.7333 18.5618 32.6956 18.5618 32.626C18.5618 32.5558 18.5318 32.5172 18.4952 32.5398C18.4586 32.5629 18.3827 32.4942 18.3259 32.3878C18.2692 32.2814 18.1908 32.1943 18.1519 32.1943C18.0595 32.1943 17.8583 31.9905 17.8583 31.8969C17.8583 31.8564 17.7612 31.7241 17.643 31.6032C17.5248 31.4817 17.476 31.4106 17.5342 31.445C17.6045 31.4869 17.5951 31.4394 17.506 31.3024C17.4324 31.1899 17.332 31.1202 17.2828 31.1485C17.234 31.1767 17.2194 31.1711 17.2509 31.1362C17.2828 31.1009 17.2476 31.0223 17.173 30.9607C17.089 30.8919 17.082 30.8712 17.1547 30.907C17.219 30.9385 17.1866 30.8703 17.0825 30.7559C16.9779 30.6411 16.9221 30.5469 16.9577 30.5469C16.9934 30.5469 16.9624 30.4801 16.8888 30.3987C16.8096 30.3038 16.7593 30.1882 16.7438 30.0654C16.7373 29.9633 16.7049 29.8607 16.6711 29.8371C16.6116 29.7948 16.5224 29.3424 16.506 28.9974C16.5018 28.9005 16.4746 28.8209 16.4465 28.8209C16.3691 28.8209 16.3756 26.8577 16.4535 26.5852C16.4906 26.4557 16.5379 26.2439 16.5595 26.1145C16.5806 25.985 16.6852 25.7036 16.7917 25.4889C16.8981 25.2743 16.9685 25.071 16.9483 25.038C16.9277 25.0046 16.9469 24.9773 16.991 24.9773C17.0351 24.9773 17.052 24.9265 17.0285 24.8643C17.0046 24.8022 17.0586 24.6883 17.1481 24.6116C17.2377 24.5344 17.3109 24.4068 17.3109 24.3273C17.3109 24.2482 17.3461 24.2054 17.3892 24.2317C17.4319 24.2586 17.4671 24.2251 17.4671 24.1574C17.4671 24.0896 17.5375 23.9738 17.6238 23.8999C17.7096 23.826 17.7799 23.7182 17.7799 23.6608C17.7799 23.6029 17.8109 23.5751 17.8489 23.5987C17.8869 23.6222 17.9615 23.5365 18.0145 23.408C18.0675 23.28 18.1331 23.1863 18.1603 23.2005C18.1875 23.2146 18.2715 23.1614 18.3465 23.0819C18.4221 23.0023 18.4591 22.9374 18.4296 22.9374C18.3995 22.9374 18.4432 22.8875 18.5262 22.8267C18.6092 22.766 18.7049 22.7331 18.7387 22.7543C18.7724 22.775 18.7903 22.7472 18.7785 22.6921C18.7668 22.6366 18.801 22.59 18.855 22.5881C18.9085 22.5862 18.9436 22.5589 18.9328 22.5274C18.9066 22.4497 19.445 22.0821 19.5191 22.1268C19.5515 22.1466 19.5778 22.1249 19.5778 22.0793C19.5778 22.0336 19.628 21.996 19.6885 21.996C19.7494 21.996 19.8114 21.9687 19.8254 21.9348C19.8719 21.8251 20.4479 21.5225 20.522 21.5686C20.5618 21.5931 20.5942 21.5799 20.5942 21.5394C20.5942 21.4683 20.8827 21.3422 21.0046 21.3601C21.037 21.3648 21.0632 21.3356 21.0632 21.2951C21.0632 21.2547 21.1247 21.2226 21.2002 21.2241C21.4066 21.2278 21.6927 21.1487 21.8015 21.0584C21.855 21.0141 21.9159 20.9953 21.9375 21.017C21.9591 21.0386 22.1317 20.9991 22.3212 20.9289C22.5107 20.8588 22.7977 20.8066 22.9591 20.8136C23.12 20.8202 23.2522 20.7953 23.2522 20.7581C23.2522 20.6762 26.2058 20.6503 26.256 20.7317Z" fill="#CBAA8A"/>
</svg>
