<svg width="28" height="29" viewBox="0 0 28 29" fill="none" xmlns="http://www.w3.org/2000/svg">
<path d="M14 0.403809C6.28045 0.403809 0 6.67892 0 14.3922C0 22.1056 6.28045 28.3808 14 28.3808C21.7196 28.3808 28 22.1056 28 14.3922C28 6.67892 21.7197 0.403809 14 0.403809ZM22.039 12.0295L13.2436 20.8177C12.8696 21.1914 12.3724 21.397 11.8436 21.397C11.3148 21.397 10.8176 21.1914 10.4436 20.8177L5.96095 16.3387C5.58697 15.965 5.38099 15.4683 5.38099 14.9399C5.38099 14.4114 5.58697 13.9146 5.96095 13.541C6.33479 13.1673 6.83193 12.9615 7.36091 12.9615C7.88975 12.9615 8.38703 13.1673 8.76087 13.5411L11.8435 16.621L19.2388 9.23173C19.6128 8.85806 20.11 8.65239 20.6388 8.65239C21.1676 8.65239 21.6648 8.85806 22.0388 9.23173C22.811 10.0033 22.811 11.2582 22.039 12.0295Z" fill="#DD2C2C"/>
</svg>
