<svg width="50" height="50" viewBox="0 0 50 50" fill="none" xmlns="http://www.w3.org/2000/svg">
<path d="M25 0C11.1935 0 0 11.1935 0 25C0 38.8065 11.1935 50 25 50C38.8065 50 50 38.8065 50 25C50 11.1935 38.8065 0 25 0ZM36.5385 28.8462H25C24.49 28.8462 24.0008 28.6435 23.6402 28.2829C23.2795 27.9223 23.0769 27.4331 23.0769 26.9231V9.61538C23.0769 9.10535 23.2795 8.61621 23.6402 8.25556C24.0008 7.89492 24.49 7.69231 25 7.69231C25.51 7.69231 25.9992 7.89492 26.3598 8.25556C26.7205 8.61621 26.9231 9.10535 26.9231 9.61538V25H36.5385C37.0485 25 37.5376 25.2026 37.8983 25.5633C38.2589 25.9239 38.4615 26.413 38.4615 26.9231C38.4615 27.4331 38.2589 27.9223 37.8983 28.2829C37.5376 28.6435 37.0485 28.8462 36.5385 28.8462Z" fill="#CBAA8A"/>
</svg>
