<svg width="36" height="43" viewBox="0 0 36 43" fill="none" xmlns="http://www.w3.org/2000/svg">
<path d="M35.1437 15.6818C36.2854 16.8051 36.2854 18.6129 35.1437 19.7361C34.5728 20.2978 33.8325 20.5786 33.0833 20.5786C32.334 20.5786 31.5937 20.2978 31.0228 19.7361L20.9167 9.78469V40.1304C20.9167 41.71 19.6145 43 18 43C16.3855 43 15.0833 41.7188 15.0833 40.1304V9.78469L4.97721 19.7361C3.83548 20.8594 1.99802 20.8594 0.856293 19.7361C-0.285431 18.6129 -0.285431 16.8051 0.856293 15.6818L15.9395 0.842449C16.4836 0.298367 17.224 0 18 0C18.776 0 19.5164 0.298367 20.0605 0.842449L35.1437 15.6818Z" fill="#FFF8EF"/>
</svg>
